<svg width="218" height="50" viewBox="0 0 218 50" fill="none" xmlns="http://www.w3.org/2000/svg">
<path d="M196.605 1.22878V37.8739C196.605 39.0582 197.023 40.0647 197.852 40.9014C198.686 41.73 199.687 42.1483 200.853 42.1483H217.696V44.8444H200.879C198.971 44.8444 197.33 44.1572 195.958 42.787C194.594 41.4127 193.907 39.7676 193.907 37.8416V1.22878H196.605ZM190.174 1.22878H192.87V37.8901C192.87 40.0768 193.65 41.9523 195.202 43.5024C196.756 45.0586 198.632 45.8387 200.816 45.8387H217.658V48.5348H200.816C197.892 48.5348 195.376 47.4919 193.286 45.4123C191.213 43.3205 190.172 40.8064 190.172 37.8799L190.174 1.22878ZM140.944 24.2664C140.944 29.1936 142.694 33.4135 146.194 36.9301C149.689 40.4082 153.913 42.1483 158.866 42.1483C163.793 42.1483 168.013 40.4082 171.506 36.9301C175.006 33.4135 176.758 29.1936 176.758 24.2664C176.758 19.3391 175.008 15.1213 171.506 11.6047C168.013 8.12854 163.795 6.3844 158.866 6.3844C153.915 6.3844 149.689 8.12652 146.194 11.6047C142.694 15.1213 140.944 19.3391 140.944 24.2664ZM138.246 24.2664C138.246 18.5812 140.265 13.7409 144.303 9.73727C148.323 5.70736 153.173 3.69038 158.864 3.69038C164.535 3.69038 169.375 5.70938 173.395 9.73727C177.431 13.7429 179.45 18.5833 179.45 24.2664C179.45 29.9515 177.431 34.7979 173.395 38.8137C169.375 42.8355 164.533 44.8444 158.864 44.8444C153.173 44.8444 148.323 42.8355 144.303 38.8137C140.265 34.7999 138.246 29.9515 138.246 24.2664ZM137.253 24.2664C137.253 30.2122 139.367 35.289 143.593 39.5089C147.811 43.7247 152.898 45.8407 158.85 45.8407C164.802 45.8407 169.889 43.7247 174.107 39.5089C178.335 35.289 180.447 30.2122 180.447 24.2664C180.447 18.3226 178.335 13.2458 174.107 9.02587C169.889 4.808 164.802 2.69402 158.85 2.69402C152.898 2.69402 147.811 4.80598 143.593 9.02587C139.367 13.2458 137.253 18.3226 137.253 24.2664ZM134.557 24.2664C134.557 17.5889 136.93 11.8654 141.675 7.11196C146.439 2.37268 152.165 0 158.85 0C165.538 0 171.261 2.37268 176.023 7.11196C180.77 11.8654 183.143 17.5909 183.143 24.2664C183.143 30.9458 180.768 36.6694 176.023 41.4228C171.261 46.1641 165.538 48.5368 158.85 48.5368C152.165 48.5368 146.439 46.1641 141.677 41.4228C136.93 36.6714 134.557 30.9479 134.557 24.2664ZM103.401 1.22878C105.293 1.22878 106.916 1.89976 108.272 3.23969C109.606 4.58165 110.275 6.19644 110.275 8.08812V42.9931C110.275 43.3165 110.432 43.4701 110.748 43.4701C111.063 43.4701 111.221 43.3165 111.221 42.9931V8.11237C111.221 6.21867 111.89 4.5958 113.221 3.23969C114.561 1.89976 116.178 1.22878 118.07 1.22878H133.017V3.92482H118.07C116.934 3.92482 115.956 4.33508 115.137 5.14551C114.329 5.96807 113.919 6.9523 113.919 8.10428V42.9871C113.919 43.8601 113.612 44.618 112.995 45.2486C112.373 45.865 111.623 46.1722 110.75 46.1722C109.873 46.1722 109.125 45.865 108.502 45.2486C107.886 44.616 107.579 43.8581 107.579 42.9871V8.08205C107.579 6.94624 107.171 5.97009 106.358 5.14956C105.538 4.33711 104.545 3.92886 103.377 3.92886H88.082V1.22878H103.401ZM133.062 4.91916V7.6152H118.145C117.821 7.6152 117.656 7.78092 117.656 8.10428V43.1124C117.656 45.0263 116.979 46.6491 115.622 47.9911C114.283 49.329 112.658 50 110.766 50C108.866 50 107.241 49.329 105.901 47.9911C104.559 46.6491 103.89 45.0263 103.89 43.1124V8.10428C103.89 7.78092 103.735 7.6152 103.411 7.6152H88.0679V4.91916H103.411C104.287 4.91916 105.026 5.22635 105.643 5.84276C106.275 6.47332 106.591 7.2312 106.591 8.10631V43.1063C106.591 44.2542 106.999 45.2425 107.811 46.0631C108.63 46.8715 109.61 47.2837 110.752 47.2837C111.91 47.2837 112.896 46.8735 113.709 46.0631C114.511 45.2425 114.915 44.2542 114.915 43.1063V8.10428C114.915 7.21504 115.23 6.45715 115.869 5.84074C116.494 5.22635 117.249 4.91714 118.149 4.91714L133.062 4.91916ZM44.2846 24.2664C44.2846 29.1936 46.0348 33.4135 49.5372 36.9301C53.0315 40.4082 57.2555 42.1483 62.209 42.1483C67.1362 42.1483 71.3541 40.4082 74.8484 36.9301C78.3468 33.4135 80.099 29.1936 80.099 24.2664C80.099 19.3391 78.3488 15.1213 74.8484 11.6047C71.3541 8.12854 67.1362 6.3844 62.209 6.3844C57.2575 6.3844 53.0315 8.12652 49.5372 11.6047C46.0348 15.1213 44.2846 19.3391 44.2846 24.2664ZM41.5885 24.2664C41.5885 18.5812 43.6075 13.7409 47.6435 9.73727C51.6633 5.70736 56.5137 3.69038 62.207 3.69038C67.8759 3.69038 72.7162 5.70938 76.7361 9.73727C80.7741 13.7429 82.791 18.5833 82.791 24.2664C82.791 29.9515 80.7741 34.7979 76.7361 38.8137C72.7162 42.8355 67.8739 44.8444 62.207 44.8444C56.5137 44.8444 51.6633 42.8355 47.6435 38.8137C43.6075 34.7999 41.5885 29.9515 41.5885 24.2664ZM40.5962 24.2664C40.5962 30.2122 42.7082 35.289 46.9361 39.5089C51.154 43.7247 56.2409 45.8407 62.1928 45.8407C68.1447 45.8407 73.2296 43.7247 77.4495 39.5089C81.6754 35.289 83.7894 30.2122 83.7894 24.2664C83.7894 18.3226 81.6754 13.2458 77.4495 9.02587C73.2296 4.808 68.1447 2.69402 62.1928 2.69402C56.2409 2.69402 51.154 4.80598 46.9361 9.02587C42.7082 13.2458 40.5962 18.3226 40.5962 24.2664ZM37.8981 24.2664C37.8981 17.5889 40.2728 11.8654 45.0162 7.11196C49.7817 2.37268 55.5053 0 62.1908 0C68.8763 0 74.6019 2.37268 79.3614 7.11196C84.1108 11.8654 86.4814 17.5909 86.4814 24.2664C86.4814 30.9458 84.1087 36.6694 79.3614 41.4228C74.6019 46.1641 68.8763 48.5368 62.1908 48.5368C55.5053 48.5368 49.7797 46.1641 45.0162 41.4228C40.2728 36.6714 37.8981 30.9479 37.8981 24.2664ZM0.00808407 3.92684V1.22878H18.0497C20.9903 1.22878 23.5125 2.2696 25.6002 4.34317C27.69 6.42482 28.7389 8.90865 28.7389 11.8007C28.7389 14.7575 27.69 17.2797 25.6002 19.3775C23.5044 21.4673 20.9903 22.5162 18.0497 22.5162L11.3238 22.4939C11.0004 22.4939 10.8347 22.6657 10.8347 23.0133C10.8347 23.3448 11.0469 23.5105 11.4673 23.5105H18.3488C21.7947 23.5105 24.7433 24.7312 27.1968 27.1847C29.6483 29.6281 30.8711 32.5768 30.8711 36.0226C30.8711 39.4685 29.6483 42.4171 27.2049 44.8605C24.7514 47.312 21.8027 48.5348 18.3569 48.5348H0.0161681V45.8387H18.3549C21.0529 45.8387 23.363 44.8747 25.287 42.9527C27.211 41.0428 28.173 38.7328 28.173 36.0206C28.173 33.3084 27.211 31.0004 25.2789 29.0885C23.3549 27.1665 21.0449 26.2045 18.3468 26.2045H11.3298C10.4446 26.2045 9.69685 25.8892 9.06831 25.2506C8.43573 24.6362 8.12045 23.8783 8.12045 22.9951C8.12045 22.1059 8.44382 21.3399 9.09054 20.7235C9.73727 20.0889 10.5255 19.7736 11.4652 19.7736H18.0497C20.2405 19.7736 22.118 18.9935 23.6863 17.4414C25.2546 15.9034 26.0428 14.0582 26.0428 11.9058C26.0428 9.70695 25.2546 7.82943 23.6863 6.27728C22.1322 4.70897 20.2567 3.92684 18.0497 3.92684H0.00808407ZM0 7.61722V4.91916H18.0416C19.9636 4.91916 21.6209 5.5962 23.0073 6.9523C24.3735 8.30841 25.0586 9.92522 25.0586 11.8007C25.0586 13.7409 24.3735 15.3961 23.0073 16.7684C21.637 18.1427 19.9879 18.8278 18.0639 18.8278H11.3379C10.1859 18.8278 9.19361 19.2381 8.35691 20.0485C7.54446 20.861 7.1342 21.8472 7.1342 22.9972C7.1342 24.1552 7.55255 25.1334 8.38116 25.9297C9.22393 26.7421 10.2567 27.1524 11.4794 27.1524H18.3407C20.7842 27.1524 22.8719 28.0133 24.6019 29.7373C26.3197 31.4774 27.1787 33.5691 27.1787 36.0065C27.1787 38.4256 26.3177 40.5073 24.6019 42.2514C22.8739 43.9774 20.7842 44.8444 18.3407 44.8444H0V42.1483H18.3407C20.0344 42.1483 21.4774 41.5481 22.6819 40.3395C23.8824 39.135 24.4826 37.69 24.4826 36.0044C24.4826 34.3068 23.8824 32.8577 22.6819 31.6512C21.4753 30.4466 20.0323 29.8464 18.3407 29.8464H11.3379C9.43007 29.8464 7.79709 29.1754 6.44099 27.8456C5.10105 26.5036 4.43007 24.8868 4.43007 22.9951C4.43007 21.0954 5.10913 19.4705 6.46524 18.1306C7.83751 16.7967 9.50889 16.1277 11.4794 16.1277L18.0416 16.1075C19.2219 16.1075 20.2405 15.6892 21.0853 14.8626C21.92 14.042 22.3383 13.0639 22.3383 11.922C22.3383 10.7316 21.92 9.72312 21.0853 8.88642C20.2405 8.04365 19.2219 7.61722 18.0416 7.61722H0Z" fill="white"/>
</svg>
